<svg xmlns="http://www.w3.org/2000/svg" viewBox="0 0 231.42 47.45"><defs><style>.cls-1{fill:#fff;}</style></defs><title>Modo de aislamiento</title><g id="Capa_2" data-name="Capa 2"><g id="Modo_de_aislamiento" data-name="Modo de aislamiento"><path class="cls-1" d="M75.47,24.74V34.82h3.89V24.91c0-4-1.33-6.3-5.68-6.3a4.8,4.8,0,0,0-4.2,2.55l-.62-2.07H65.28a22.93,22.93,0,0,1,.41,3.34V34.82h3.89V24.56c.72-1.47,1.83-2.95,3.44-2.95,2.31,0,2.45,1.58,2.45,3.13"/><path class="cls-1" d="M85.77,34.67a9.06,9.06,0,0,0,3.4.6,24.66,24.66,0,0,0,4.41-.68L92.3,31.46c-.37.16-2.68,1.35-4.69.52-2.17-.95-2.23-4-2.23-4.9a7.81,7.81,0,0,1,1-4.23,3.29,3.29,0,0,1,2.91-1.21,8.1,8.1,0,0,1,3,.86l1.19-3.11a19.85,19.85,0,0,0-4.19-.75,9.25,9.25,0,0,0-3.48.61,6.8,6.8,0,0,0-3.92,4.36,12.17,12.17,0,0,0,0,6.78,6.71,6.71,0,0,0,3.89,4.28"/><path class="cls-1" d="M101.9,35.3c5.65,0,7.74-3.92,7.74-8.43s-2-8.26-7.74-8.26-7.78,3.89-7.78,8.26c0,4.54,2.1,8.43,7.78,8.43m0-13.69c2.62,0,3.75,1.41,3.75,5.26s-1.34,5.44-3.75,5.44c-2.62,0-3.78-1.89-3.78-5.44,0-3.85,1.3-5.26,3.78-5.26"/><path class="cls-1" d="M63.19,34.8q-.07-.66-.18-1.32c-.07-.44-.14-.87-.2-1.28s-.13-.81-.17-1.19a9.72,9.72,0,0,1-.07-1V23.66a5.28,5.28,0,0,0-.44-2.23c-.29-.68-1.42-2.78-5.5-2.78a24.7,24.7,0,0,0-5.61.66l.89,3.18c3.74-1.25,5.33-.82,5.7-.63,1,.5,1,1.39,1,2.58H57.35c-1.67,0-4.79.2-6.6,1.91s-2,6.55,1.61,8.08a6,6,0,0,0,6.57-1.21l.58,1.58Zm-4.5-4.16a4.37,4.37,0,0,1-3.13,1.49c-1.54,0-2.69-.67-2.84-2-.21-2.14,2.07-2.77,2.73-2.9a12.44,12.44,0,0,1,2.38-.2h.86Z"/><path class="cls-1" d="M35.49,34.81l.58-1.58a6.34,6.34,0,0,0,4.52,1.71c3.68,0,6.88-2.34,6.88-6.38a5.59,5.59,0,0,0-4.37-5.41,5,5,0,0,0,3-4.82c0-4.06-3.53-5.78-7.09-5.78H32.43V30a9.72,9.72,0,0,1-.07,1c0,.38-.5,3.35-.55,3.79Zm2.95-3.45a4.19,4.19,0,0,1-.87-.36,7.06,7.06,0,0,1-1.26-1V25.25h3.06c2.46,0,4.19,1.2,4.19,3.09,0,2.33-1.73,3.53-4.09,3.25a5.46,5.46,0,0,1-1-.23M36.29,15.89H38c2.41,0,4.56.36,4.56,2.82,0,2.77-2.56,3-4.08,3H36.29Z"/><polygon class="cls-1" points="131.08 15.93 132.13 12.55 119.3 12.55 119.3 34.82 123.25 34.82 123.25 25.08 129.62 25.08 129.62 21.78 123.25 21.78 123.25 15.93 131.08 15.93"/><path class="cls-1" d="M138.94,18.61c-5.65,0-7.78,3.89-7.78,8.26,0,4.55,2.1,8.43,7.78,8.43s7.74-3.92,7.74-8.43-2-8.26-7.74-8.26m0,13.7c-2.62,0-3.79-1.89-3.79-5.44,0-3.85,1.31-5.27,3.79-5.27s3.75,1.42,3.75,5.27-1.35,5.44-3.75,5.44"/><path class="cls-1" d="M152.33,21.78l-.62-2.69h-3.58a20.54,20.54,0,0,1,.42,3.51V34.82h3.89v-8.1c0-3.26,1.37-5.11,3.2-5.11a4,4,0,0,1,2.27,1l1.34-3.2a5.8,5.8,0,0,0-3-.76,4.14,4.14,0,0,0-3.92,3.17"/><path class="cls-1" d="M179,18.61a5.49,5.49,0,0,0-4.82,2.55,5.14,5.14,0,0,0-5-2.55c-2.14,0-3.62,1.79-4.17,2.58l-.61-2.1h-3.59a35.63,35.63,0,0,1,.42,3.62V34.82h3.89V24.53c.44-1,1.72-2.93,3.34-2.93s2.4.63,2.4,3.24v10h3.89V24.74c.59-1.59,1.83-3.14,3.69-3.14,1.58,0,2.23.9,2.23,3.24v10h3.89v-10c0-4.2-1.82-6.16-5.54-6.16"/><path class="cls-1" d="M194.2,18.61c-5.64,0-7.78,3.89-7.78,8.26,0,4.55,2.1,8.43,7.78,8.43s7.74-3.92,7.74-8.43-2-8.26-7.74-8.26m0,13.7c-2.61,0-3.79-1.89-3.79-5.44,0-3.85,1.31-5.27,3.79-5.27S198,23,198,26.87s-1.34,5.44-3.75,5.44"/><path class="cls-1" d="M210.71,25.12c-1.62-.49-2.92-.9-2.92-1.93s1-1.58,2.72-1.58a7.48,7.48,0,0,1,3.19.82L215,19.35a15.74,15.74,0,0,0-4.55-.74c-3.18,0-6.68.9-6.68,4.68s3,4.65,5.44,5.37c1.65.48,3.06.9,3.06,1.89s-.31,1.76-2.72,1.76c-1.82,0-3-.65-4.74-1.31l-1.35,3.2a20.06,20.06,0,0,0,6,1.1c3.34,0,6.78-1.1,6.78-4.78s-3.13-4.65-5.58-5.4"/><path class="cls-1" d="M231.42,34.82c0-.44-.12-.88-.19-1.32s-.14-.87-.2-1.28-.12-.81-.17-1.18a9.87,9.87,0,0,1-.06-1V23.68a5.44,5.44,0,0,0-.44-2.23c-.29-.68-1.43-2.78-5.51-2.78a24.75,24.75,0,0,0-5.61.66l.89,3.18c3.74-1.25,5.33-.82,5.7-.63,1,.5,1,1.39,1,2.58h-1.31c-1.67,0-4.79.2-6.59,1.91s-2,6.55,1.6,8.08a6,6,0,0,0,6.57-1.21l.59,1.58Zm-4.48-4.16a4.37,4.37,0,0,1-3.13,1.5c-1.54,0-2.69-.68-2.84-2-.21-2.13,2.07-2.77,2.73-2.9a12.44,12.44,0,0,1,2.38-.2h.86Z"/><path class="cls-1" d="M14.66,24.89a15.29,15.29,0,0,0,1-1.74l.55-.25A23.72,23.72,0,0,0,20,20.57a22.21,22.21,0,0,1,2,4.93A22.87,22.87,0,0,1,17.47,32c-.45.45-.93.88-1.41,1.29a14.39,14.39,0,0,0,.09-1.62,16,16,0,0,0-1.49-6.75m1.5-9.41c.27.27.54.56.79.84,0,.16,0,.32,0,.49a15.71,15.71,0,0,1-1.35,5.45c-.08.18-.16.35-.25.52-.48.22-1,.43-1.46.61a16.45,16.45,0,0,0-2.46-3.16,16.09,16.09,0,0,0-2.93-2.32,16.15,16.15,0,0,0,7.08-3l.6.58m-.22-.89c.31-.24.6-.5.89-.77a15.89,15.89,0,0,1,.13,1.8c-.15-.17-.31-.33-.46-.48s-.35-.35-.56-.55m1.48,2.26a22.46,22.46,0,0,1,2.33,3.29A22.36,22.36,0,0,1,16,22.46a16.25,16.25,0,0,0,1.4-5.61M15,23.48c-.17.3-.36.61-.55.9-.09-.19-.2-.38-.3-.56l.85-.34m5.42-3.21a24.91,24.91,0,0,0,2-1.8,23.49,23.49,0,0,0,1.75-2,22.94,22.94,0,0,1-1.83,8.29,23.51,23.51,0,0,0-1.94-4.53m1.67-2.14a20.91,20.91,0,0,1-1.92,1.71,23.84,23.84,0,0,0-2.34-3.31l-.34-.38v-.34a15.92,15.92,0,0,0-.18-2.39l0,0a16.05,16.05,0,0,0,4.36-8A22.76,22.76,0,0,1,24.16,15.7a22.14,22.14,0,0,1-2.11,2.43M13.29,3.83,16.88.24A.82.82,0,0,1,18,.24a23,23,0,0,1,3.27,4.49c0,.2-.07.39-.12.58a15.49,15.49,0,0,1-4,7.51A16,16,0,0,0,13.29,5a.82.82,0,0,1,0-1.16M.82,15.51A.81.81,0,0,1,0,14.7V9.62A.82.82,0,0,1,.82,8.8a22.73,22.73,0,0,1,14.36,5.77A15.72,15.72,0,0,1,8.4,17.43l-.6.08a16.06,16.06,0,0,0-7-2m1.43,9a.82.82,0,0,1-.64-1c.33-1.58,1-4.9,1-5a.82.82,0,0,1,.8-.66l.17,0a17,17,0,0,0,2.34.18A15.09,15.09,0,0,0,7.69,18l.54.31a16.25,16.25,0,0,1,2.84,2.25,16,16,0,0,1,2.33,3,22.71,22.71,0,0,1-7.5,1.27,22,22,0,0,1-3.65-.29m4.84,13.4-.53.14H6.4a.81.81,0,0,1-.8-.66l-1-5a.81.81,0,0,1,.65-1,16.37,16.37,0,0,0,7.46-4.25,14.88,14.88,0,0,0,1.6-1.88,15.47,15.47,0,0,1,1.33,6.29c0,.51,0,1-.08,1.57l-.06.5a22.33,22.33,0,0,1-8.43,4.22m9.64,9.28a.85.85,0,0,1-.58.24.82.82,0,0,1-.58-.24L12,43.61a.8.8,0,0,1,0-1.16A16.15,16.15,0,0,0,16,34l.4-.33c.52-.44,1-.87,1.44-1.32a23.24,23.24,0,0,0,4.38-6.09,23,23,0,0,1,.65,5.42,22.84,22.84,0,0,1-6.12,15.57m7.91-32.16A23.59,23.59,0,0,0,22.1,5.19c-.09-.18-.19-.36-.29-.54A14.3,14.3,0,0,0,22,2.79.82.82,0,0,1,22.84,2h5.08a.82.82,0,0,1,.81.82,22.78,22.78,0,0,1-4.09,12.26"/></g></g></svg>