<svg xmlns="http://www.w3.org/2000/svg" viewBox="0 0 115.34 189.92"><defs><style>.cls-1{fill:#80bd00;}.cls-2{fill:#02b2e3;}.cls-3{fill:#4d9d2a;}.cls-4{fill:#113a72;}.cls-5{fill:#477626;}.cls-6{fill:#216093;}.cls-7{fill:#1c5532;}</style></defs><title>Logo Formosa SVG</title><g id="Capa_2" data-name="Capa 2"><g id="Capa_2-2" data-name="Capa 2"><path class="cls-1" d="M86.51,22.38A93.15,93.15,0,0,0,72.17.66,2,2,0,0,0,69.32.53L52.42,16.14a2,2,0,0,0-.13,2.8A65.78,65.78,0,0,1,68,54.2,65.61,65.61,0,0,0,86.51,22.38Z"/><path class="cls-1" d="M57.28,99.17a65.66,65.66,0,0,1-37.83,26.88A2,2,0,0,0,18,128.43l5.24,22.39a2,2,0,0,0,2.44,1.49A93.13,93.13,0,0,0,63.25,132.6c.14-1.77.23-3.56.23-5.35A66.12,66.12,0,0,0,57.28,99.17Z"/><path class="cls-1" d="M78.07,80.79a91.86,91.86,0,0,1,8.75,20.57,93.23,93.23,0,0,0,8.62-37.45,95,95,0,0,1-8.27,9.15A96.11,96.11,0,0,1,78.07,80.79Z"/><path class="cls-2" d="M32.85,71.43a66.87,66.87,0,0,1-10.37.82,66.17,66.17,0,0,1-9.76-.72,2,2,0,0,0-2.27,1.6l-4,22.67a2,2,0,0,0,1.64,2.33,94,94,0,0,0,14.43,1.12,93,93,0,0,0,31.88-5.62A65.82,65.82,0,0,0,32.85,71.43Z"/><path class="cls-2" d="M68.3,67c.11-1.57.18-3.16.18-4.75a67.17,67.17,0,0,0-.5-8,66.59,66.59,0,0,1-6.6,5.48c1,1,2,1.94,3,3C65.73,64,67,65.51,68.3,67Z"/><path class="cls-2" d="M95.44,63.91A92.3,92.3,0,0,0,115.33,11.5a2,2,0,0,0-1.93-2.1l-23-.79a2,2,0,0,0-2.07,1.9,66.91,66.91,0,0,1-1.83,11.87,92.81,92.81,0,0,1,9,39.87C95.48,62.8,95.45,63.35,95.44,63.91Z"/><path class="cls-3" d="M68.3,67a93.65,93.65,0,0,1,9.77,13.79,96.11,96.11,0,0,0,9.1-7.73,95,95,0,0,0,8.27-9.15c0-.56,0-1.11,0-1.66a92.81,92.81,0,0,0-9-39.87A65.61,65.61,0,0,1,68,54.2a67.17,67.17,0,0,1,.5,8C68.48,63.84,68.41,65.43,68.3,67Z"/><path class="cls-4" d="M2.94,34.4a2,2,0,0,0-2.1,1.93L0,59.32a2,2,0,0,0,1.9,2.07,65.84,65.84,0,0,1,31,10A65.7,65.7,0,0,0,61.38,59.68,92.42,92.42,0,0,0,2.94,34.4Z"/><path class="cls-4" d="M54.36,93.63q1.59,2.69,2.92,5.54a66.79,66.79,0,0,0,5-8.85Q58.4,92.17,54.36,93.63Z"/><path class="cls-4" d="M75,120.44A92.77,92.77,0,0,1,63.25,132.6,65.74,65.74,0,0,1,47,170.86a2,2,0,0,0,.11,2.8l16.8,15.71a2,2,0,0,0,2.85-.11,92.64,92.64,0,0,0,23.7-62,93.3,93.3,0,0,0-3.66-25.89A93,93,0,0,1,75,120.44Z"/><path class="cls-5" d="M75,120.44a93,93,0,0,0,11.79-19.08,91.86,91.86,0,0,0-8.75-20.57,92.92,92.92,0,0,1-15.8,9.53,66.79,66.79,0,0,1-5,8.85,66.12,66.12,0,0,1,6.2,28.08c0,1.79-.09,3.58-.23,5.35A92.77,92.77,0,0,0,75,120.44Z"/><path class="cls-6" d="M68.3,67c-1.27-1.49-2.57-3-3.94-4.37-1-1-2-2-3-3A65.7,65.7,0,0,1,32.85,71.43a65.82,65.82,0,0,1,21.51,22.2q4-1.47,7.91-3.31A65.9,65.9,0,0,0,68.3,67Z"/><path class="cls-7" d="M62.27,90.32a92.92,92.92,0,0,0,15.8-9.53A93.65,93.65,0,0,0,68.3,67,65.9,65.9,0,0,1,62.27,90.32Z"/></g></g></svg>